<svg id="Layer_1" data-name="Layer 1" xmlns="http://www.w3.org/2000/svg" viewBox="0 0 122.88 91.39"><title>customer-experience</title><path d="M65,8l8.58.64L67,14.16l2,8.36L61.75,18l-7.31,4.52,2.05-8.36L49.91,8.6,58.49,8l3.25-8L65,8ZM29.51,91.39c.19-5.84-.14-5.93,6.69-8.48,4-1.51,9.13-3.41,12.81-5.7,4.33,4,7.1,8.59,7.2,14.18ZM53,71.7c.19-1.48-4.19-7.09-5-9.79-1.71-2.71-2.32-6.43-.45-9.3.74-1.14.42-2.09.42-3.65,0-15.63,27.39-15.65,27.39,0,0,2-.45,2.39.62,3.94,1.8,2.61.87,6.6-.65,9-1,2.83-5.54,8.18-5.23,9.79.27,8-17.18,7.75-17.12,0ZM94,91.39c-.19-5.84.14-5.93-6.69-8.48-4-1.51-9.13-3.41-12.81-5.7-4.33,4-7.1,8.59-7.2,14.18Zm28.9-52.81-5.27,6.81,3.74,7.74-8.09-2.91-6.21,6,.26-8.6-7.58-4.07L108,41.1l1.53-8.47,4.83,7.11,8.53-1.16Zm-23.4-27-1.15,8.53,7.11,4.84L97,26.44,94.56,34.7,90.5,27.12l-8.6.26,5.95-6.21-2.92-8.1,7.75,3.74,6.8-5.28ZM0,38.59l8.53,1.16,4.84-7.11,1.54,8.46,8.26,2.41-7.58,4.07.26,8.6-6.22-6-8.1,2.91,3.74-7.75L0,38.59ZM24,11.53l6.8,5.27,7.75-3.74-2.9,8.09,6,6.21L33,27.1,29,34.68l-2.41-8.26-8.48-1.53L25.17,20,24,11.53Z"/></svg>