<svg id="Layer_1" data-name="Layer 1" xmlns="http://www.w3.org/2000/svg" viewBox="0 0 95.7 122.88"><defs><style>.cls-1{fill-rule:evenodd;}</style></defs><title>hosting-web-server</title><path class="cls-1" d="M26.94,116.41v-4.85H39.68a8.81,8.81,0,0,1,6-5.92V103H33.93a1.63,1.63,0,0,1-1.16-.48,1.68,1.68,0,0,1-.48-1.16V53a1.63,1.63,0,0,1,.48-1.16,1.68,1.68,0,0,1,1.16-.48H61.8a1.66,1.66,0,0,1,1.61,1.34c0,.1,0,.2,0,.3v48.36c0,.1,0,.2,0,.3h0a1.65,1.65,0,0,1-.46.86,1.59,1.59,0,0,1-1.15.48H50.52v2.64a8.85,8.85,0,0,1,6,5.92H79.08v4.85H56.58a8.79,8.79,0,0,1-17,0ZM84.82,68.76c.16-.28.32-.58.48-.88h0l.55-1.07c.19-.4.39-.8.58-1.22s.38-.84.55-1.24l.08-.13c.26-.63.51-1.26.74-1.89s.45-1.28.65-1.93v0c.21-.64.39-1.3.56-2s.32-1.34.45-2c.11-.54.21-1.08.29-1.6s.16-1.06.23-1.61h0q.09-.72.15-1.47.06-.59.09-1.17H78.5a37.12,37.12,0,0,1-.5,4.57,41.4,41.4,0,0,1-1.14,4.81,49,49,0,0,1-1.71,4.68c-.6,1.39-1.28,2.79-2,4.18Zm-3.56,5.41H72.17V56.67c.15-.6.29-1.2.4-1.81a31.68,31.68,0,0,0,.54-4.32h-.94v-2a6.81,6.81,0,0,0-.91-3.41H73a35.28,35.28,0,0,0-.72-4.23,39.15,39.15,0,0,0-1.37-4.59,45.55,45.55,0,0,0-2.08-4.76,52.36,52.36,0,0,0-2.65-4.65H50.54V41.71H45.16V26.92H29.52a52.36,52.36,0,0,0-2.65,4.65,43.53,43.53,0,0,0-2.08,4.76,40.62,40.62,0,0,0-1.38,4.59,35.23,35.23,0,0,0-.71,4.23h1.74a6.82,6.82,0,0,0-.92,3.41v2h-.94a33.58,33.58,0,0,0,.55,4.32c.12.6.25,1.19.39,1.78V74.17h-9l.38.48c.27.32.53.64.8.95.68.78,1.4,1.54,2.14,2.29v0c.48.47,1,.93,1.47,1.39s1,.9,1.52,1.31,1.05.84,1.59,1.25c.37.27.74.54,1.12.8v6.41L23,88.78c-.68-.41-1.34-.83-2-1.26s-1.24-.85-1.85-1.3-1.21-.91-1.8-1.4-1.18-1-1.75-1.51S14.51,82.25,14,81.72l0,0c-.54-.53-1.06-1.08-1.56-1.63s-1-1.13-1.49-1.72-1-1.19-1.41-1.81-.89-1.24-1.31-1.87S7.34,73.38,7,72.72s-.79-1.33-1.16-2-.72-1.37-1.06-2.07-.67-1.42-1-2.12S3.15,65,2.88,64.3s-.53-1.49-.76-2.25-.45-1.51-.64-2.26S1.11,58.25,1,57.46s-.3-1.57-.42-2.35S.32,53.54.24,52.73.1,51.11.06,50.3,0,48.66,0,47.85C0,46.21.08,44.59.24,43c.08-.81.18-1.6.3-2.38S.79,39,1,38.24s.32-1.52.51-2.28.4-1.5.63-2.25.48-1.48.74-2.2C3.4,30,4,28.5,4.74,27c.34-.69.69-1.38,1.06-2.05S6.56,23.63,7,23s.8-1.29,1.23-1.93S9,19.8,9.48,19.19s.91-1.2,1.39-1.79,1-1.17,1.51-1.74S13.44,14.52,14,14l0,0c.54-.54,1.08-1.06,1.63-1.57s1.14-1,1.73-1.49,1.2-1,1.8-1.4l0,0c.62-.45,1.23-.89,1.85-1.3S22.32,7.34,23,6.94s1.33-.78,2-1.15,1.36-.72,2.06-1.06,1.42-.66,2.13-1h0c.73-.32,1.47-.61,2.19-.88s1.49-.53,2.25-.76,1.52-.45,2.27-.64,1.53-.37,2.32-.53h0Q39.44.71,40.59.53C41.37.42,42.16.32,43,.24S44.58.1,45.39.06,47,0,47.85,0c1.63,0,3.26.08,4.87.24.81.08,1.6.18,2.38.29s1.56.26,2.36.42,1.52.32,2.28.51,1.5.4,2.25.63,1.48.48,2.2.74,1.44.55,2.16.86a1,1,0,0,1,.21.1c.68.29,1.37.6,2,.93s1.38.7,2,1h0c.68.37,1.35.75,2,1.15h0c.67.4,1.32.82,2,1.24S75.89,9,76.5,9.47s1.21.92,1.79,1.4,1.18,1,1.75,1.51,1.14,1.06,1.68,1.6l0,0c.54.53,1.06,1.08,1.57,1.64s1,1.13,1.49,1.72.94,1.18,1.4,1.8.9,1.25,1.32,1.88v0q.64,1,1.23,1.92c.39.66.78,1.33,1.15,2s.72,1.36,1,2.06.67,1.42,1,2.13.6,1.46.88,2.21.52,1.49.76,2.25.45,1.52.64,2.28.37,1.52.53,2.31.3,1.56.41,2.34.22,1.57.3,2.38.14,1.62.18,2.43.06,1.65.06,2.46,0,1.63-.06,2.45-.1,1.61-.18,2.42-.18,1.61-.3,2.39h0c-.11.77-.25,1.55-.41,2.34s-.32,1.52-.51,2.28-.4,1.5-.63,2.25-.48,1.48-.75,2.2-.54,1.44-.85,2.15a.8.8,0,0,1-.1.23c-.3.7-.62,1.4-1,2.09s-.69,1.38-1,2-.76,1.36-1.15,2-.81,1.3-1.23,1.94-.85,1.25-1.3,1.86-.92,1.21-1.39,1.78l0,0q-.74.9-1.5,1.74h0c-.52.58-1,1.13-1.58,1.66l0,0c-.54.54-1.08,1.06-1.63,1.56s-1.13,1-1.72,1.49-1.19,1-1.81,1.4-1.24.89-1.87,1.32-1.28.84-1.94,1.23l-.55.33V82.7c.4-.28.8-.56,1.19-.85.54-.4,1.07-.81,1.59-1.24s1-.86,1.52-1.32,1-.92,1.47-1.4.74-.75,1.1-1.13.7-.77,1-1.16.54-.63.8-.95l.38-.48ZM10.87,68.78H22.6c-.77-1.4-1.45-2.8-2.06-4.21a46.56,46.56,0,0,1-1.71-4.69,39.4,39.4,0,0,1-1.13-4.81,38.28,38.28,0,0,1-.51-4.53H5.48q0,.57.09,1.17c0,.51.09,1,.15,1.48s.14,1.09.22,1.61.18,1.05.29,1.6v0c.14.67.29,1.34.46,2s.36,1.34.57,2,.42,1.32.67,2,.5,1.3.77,1.93v0c.17.39.35.8.54,1.2v0c.18.38.37.78.57,1.18s.38.74.56,1.09.33.61.49.9ZM5.47,45.15H17.3A39.1,39.1,0,0,1,18,40.67a42.67,42.67,0,0,1,1.29-4.8v0a50.24,50.24,0,0,1,1.83-4.68q1-2.13,2.16-4.25H10.87c-.17.3-.33.6-.49.9s-.37.71-.56,1.09v0c-.2.39-.39.78-.57,1.18s-.36.81-.53,1.21l0,.08,0,.07c-.26.62-.51,1.25-.74,1.88s-.45,1.28-.65,1.93-.39,1.32-.56,2-.32,1.34-.45,2S6,40.38,5.94,40.9,5.78,42,5.71,42.51s-.11,1-.15,1.48-.07.78-.09,1.16Zm9-23.62H26.67q1.45-2.05,3.09-4.1T33.4,13.2q1.79-2,3.8-3.95Q38.85,7.62,40.64,6l-.5.09-.86.16c-.67.13-1.35.29-2,.46s-1.35.36-2,.57-1.32.42-2,.67-1.31.5-1.94.78-1.31.57-1.93.87-1.24.62-1.85.95-1.22.68-1.81,1-1.15.71-1.71,1.09-1.12.77-1.66,1.16-1.07.82-1.59,1.24-1,.87-1.53,1.33-1,.91-1.47,1.4l0,0c-.36.36-.72.73-1.07,1.11s-.71.77-1,1.16-.55.63-.81,1l-.4.5ZM55.1,6c1.2,1.08,2.34,2.17,3.44,3.25q2,2,3.78,3.93,1.93,2.12,3.63,4.23c1.1,1.37,2.12,2.73,3.07,4.1H81.23L80.85,21c-.26-.32-.53-.63-.8-.94s-.68-.78-1-1.16l-1.09-1.13c-.5-.49-1-1-1.48-1.41s-1-.9-1.52-1.32-1-.84-1.59-1.24-1.1-.79-1.66-1.17-1.13-.74-1.72-1.09-1.18-.7-1.78-1-1.24-.65-1.86-1S65.05,9,64.38,8.74l-.14-.08c-.63-.26-1.26-.51-1.89-.74s-1.28-.45-1.93-.65h0c-.65-.2-1.31-.38-2-.55s-1.34-.32-2-.46l-.85-.16L55.1,6Zm29.72,20.9H72.44c.8,1.41,1.51,2.83,2.15,4.25a47.16,47.16,0,0,1,1.85,4.7,42.67,42.67,0,0,1,1.29,4.8,41.44,41.44,0,0,1,.67,4.48H90.22L90.13,44c0-.51-.09-1-.15-1.48s-.14-1.09-.22-1.61-.18-1-.29-1.6v0c-.14-.67-.29-1.34-.46-2s-.36-1.35-.57-2-.43-1.32-.67-2-.5-1.3-.77-1.92v0c-.17-.39-.35-.8-.54-1.2v0l-.57-1.18c-.19-.39-.38-.75-.56-1.08s-.32-.6-.5-.91ZM50.54,9.15V21.53H62.36c-.73-.93-1.5-1.87-2.31-2.8q-1.41-1.65-3-3.31T53.7,12.06q-1.52-1.44-3.16-2.91ZM45.16,21.53V9.15Q43.51,10.62,42,12.06c-1.18,1.12-2.3,2.25-3.36,3.36s-2.06,2.21-3,3.31c-.81.93-1.58,1.87-2.31,2.8Zm7.11,67.94a4.88,4.88,0,1,1-4.88-4.88,4.88,4.88,0,0,1,4.88,4.88Zm5.1-29.71v4.1h-19v-4.1Zm0,11.33v4.1h-19v-4.1ZM50.88,111.3a3.95,3.95,0,0,0-5.57,0A3.94,3.94,0,0,0,48.1,118a3.94,3.94,0,0,0,2.78-6.73Z"/></svg>