<svg id="Layer_1" data-name="Layer 1" xmlns="http://www.w3.org/2000/svg" viewBox="0 0 122.88 70.51"><defs><style>.cls-1{fill-rule:evenodd;}</style></defs><title>laptop-software-update</title><path class="cls-1" d="M2.54,65.44H15.13a2.19,2.19,0,0,1-1.63-2.1V2.17A2.18,2.18,0,0,1,15.67,0h91a2.18,2.18,0,0,1,2.17,2.17V63.33a2.17,2.17,0,0,1-1.63,2.1h13.16A2.54,2.54,0,0,1,122.88,68h0a2.54,2.54,0,0,1-2.54,2.54H2.54A2.54,2.54,0,0,1,0,68H0a2.54,2.54,0,0,1,2.54-2.53ZM61.31,9a24,24,0,1,1-17,7,23.94,23.94,0,0,1,17-7Zm14.31,9.7a20.26,20.26,0,1,0,5.93,14.32,20.18,20.18,0,0,0-5.93-14.32ZM59.42,45l2-10.17,2,3.06c4.37-1.75,6.82-4.65,7.18-9.1C74.22,35.07,72,40.69,67.5,44l2.07,3.12L59.42,45Zm3.24-23.27-2,10.17-2-3c-4.37,1.75-6.82,4.64-7.18,9.09C47.86,31.67,50,26,54.58,22.75l-2.07-3.12,10.15,2.1ZM17.21,3.4H105.4V62.72H17.21V3.4Zm40.66,63H65a1.22,1.22,0,0,1,1.22,1.22h0A1.22,1.22,0,0,1,65,68.83H57.87a1.22,1.22,0,0,1-1.22-1.22h0a1.22,1.22,0,0,1,1.22-1.22Z"/></svg>