<svg id="Layer_1" data-name="Layer 1" xmlns="http://www.w3.org/2000/svg" viewBox="0 0 122.88 99.41"><defs><style>.cls-1{fill-rule:evenodd;}</style></defs><title>quickview</title><path class="cls-1" d="M61.38,31.76a18.28,18.28,0,1,1-12.93,5.36,18.24,18.24,0,0,1,12.93-5.36Zm52.9,45a4.3,4.3,0,1,1,8.6,0V95.1a4.31,4.31,0,0,1-4.3,4.31l-.39,0H92.86a4.29,4.29,0,0,1,0-8.57h21.42V76.72Zm8.6-54a4.3,4.3,0,1,1-8.6,0V8.59H92.86a4.29,4.29,0,0,1,0-8.57h25.33l.39,0a4.31,4.31,0,0,1,4.3,4.3V22.69ZM8.6,22.69a4.3,4.3,0,0,1-8.6,0V4.3A4.31,4.31,0,0,1,4.3,0l.39,0H30a4.29,4.29,0,0,1,0,8.57H8.6v14.1ZM0,76.72a4.3,4.3,0,1,1,8.6,0v14.1H30a4.29,4.29,0,0,1,0,8.57H4.69l-.39,0A4.31,4.31,0,0,1,0,95.1V76.72ZM6.92,47.43a97.18,97.18,0,0,1,9.3-9.8c13-11.81,27.73-18.12,43-18.44S90,24.54,104.67,36.64A109.75,109.75,0,0,1,116,47.46a3.7,3.7,0,0,1,.25,4.66A72.48,72.48,0,0,1,102.34,67a62.8,62.8,0,0,1-39.1,13.93,68.67,68.67,0,0,1-40-13A81.15,81.15,0,0,1,6.73,52.23a3.67,3.67,0,0,1,.19-4.8Zm14.26-4.36A86.77,86.77,0,0,0,14.41,50,73.11,73.11,0,0,0,27.5,61.91,61.4,61.4,0,0,0,63.21,73.55,55.49,55.49,0,0,0,97.76,61.2a64,64,0,0,0,10.73-11A99.33,99.33,0,0,0,100,42.31c-13.27-10.94-27.2-16-40.66-15.77S32.82,32.47,21.18,43.07Zm35.05-7.78a7.09,7.09,0,1,1-7.09,7.09,7.1,7.1,0,0,1,7.09-7.09Z"/></svg>