<svg id="Layer_1" data-name="Layer 1" xmlns="http://www.w3.org/2000/svg" viewBox="0 0 121.05 122.88"><title>team-communication</title><path d="M89.05,34.5a48.35,48.35,0,0,1,6,5.08A48.87,48.87,0,0,1,106.61,58a19.48,19.48,0,0,0-8.35-2l-.64,0a41.24,41.24,0,0,0-7.94-11.12c-.72-.72-1.47-1.42-2.24-2.08a8.46,8.46,0,0,0,1.78-5.21,27.8,27.8,0,0,0-.17-3.14Zm-14.72,27a5.61,5.61,0,0,1,3,1.58,5.67,5.67,0,0,1,1.68,4v13a5.74,5.74,0,0,1-5.72,5.72H73l.49,6.94h0a.9.9,0,0,1-.21.62.87.87,0,0,1-1.22.09l-8.9-7.87H51.48l5.77-5.87H69.48a4.87,4.87,0,0,0,4.85-4.86c0-4.11.32-9.43,0-13.4ZM49.07,68.54a1.06,1.06,0,0,1,0-2.12h10.3a1.06,1.06,0,0,1,0,2.12Zm0-5.77a1.06,1.06,0,0,1,0-2.12h14.6a1.06,1.06,0,0,1,0,2.12ZM46.19,52.66H66.37a5.9,5.9,0,0,1,4.18,1.74h0a5.92,5.92,0,0,1,1.74,4.18v13a5.9,5.9,0,0,1-1.74,4.17h0a5.9,5.9,0,0,1-4.18,1.73H56.31l-8.84,7.6a1.06,1.06,0,0,1-1.75-.87l.47-6.73A5.87,5.87,0,0,1,42,75.78h0a5.9,5.9,0,0,1-1.74-4.17v-13A5.92,5.92,0,0,1,42,54.4h0a5.9,5.9,0,0,1,4.17-1.74Zm20.18,2.13H46.19a3.78,3.78,0,0,0-2.68,1.11,3.82,3.82,0,0,0-1.11,2.68v13a3.79,3.79,0,0,0,3.79,3.79h1.2a1.06,1.06,0,0,1,1,1.13L48,81.85l7.16-6.15a1.07,1.07,0,0,1,.75-.31H66.37a3.79,3.79,0,0,0,3.79-3.79v-13a3.79,3.79,0,0,0-3.79-3.79ZM95.15,87.63A7.27,7.27,0,0,1,94.6,87c-.4-.56-.78-1.14-1.15-1.72l-1.83-2.91a5.09,5.09,0,0,1-1.06-2.67,2,2,0,0,1,1.24-1.9c-.06-1.09-.11-2.2-.11-3.3,0-.66,0-1.31,0-2A7.15,7.15,0,0,1,92,71.29a7,7,0,0,1,3.11-3.94,8.13,8.13,0,0,1,1.68-.81c1.07-.4.55-2,1.72-2,2.74-.08,7.23,2.26,9,4.16a7,7,0,0,1,1.79,4.5L109.13,78a1.35,1.35,0,0,1,1,1,4,4,0,0,1-.51,2.52h0s0,0,0,.08L107.48,85a26.77,26.77,0,0,1-1.51,2.3c-.65.87-1.19.72-.63,1.55,4,5.48,15.71,2,15.71,12.93H79.62c0-10.92,11.72-7.45,15.71-12.93.46-.68.34-.63-.18-1.18Zm-79.61,0A5,5,0,0,1,15,87c-.41-.56-.79-1.14-1.16-1.72L12,82.33A5,5,0,0,1,11,79.66a1.94,1.94,0,0,1,1.24-1.9c-.07-1.09-.11-2.2-.11-3.3,0-.66,0-1.31,0-2a7.13,7.13,0,0,1,.21-1.21,7,7,0,0,1,3.11-3.94,8.2,8.2,0,0,1,1.69-.81c1.06-.4.55-2,1.72-2,2.73-.08,7.23,2.26,9,4.16a6.94,6.94,0,0,1,1.79,4.5L29.51,78a1.35,1.35,0,0,1,1,1A4.11,4.11,0,0,1,30,81.45h0s0,0,0,.08L27.86,85a26.77,26.77,0,0,1-1.51,2.3c-.65.87-1.18.72-.63,1.55,4,5.48,15.72,2,15.72,12.93H0c0-10.92,11.73-7.45,15.71-12.93.46-.68.34-.63-.17-1.18ZM55.45,24.56c-1.09-1-2.46-1.8-2.65-3.82h-.11a1.69,1.69,0,0,1-.78-.21,2.12,2.12,0,0,1-.85-1c-.39-.9-.7-3.28.29-4l-.19-.12,0-.26c0-.48,0-1.06-.06-1.66,0-2.24-.08-4.94-1.87-5.48l-.77-.24L49,7.17a29,29,0,0,1,4.49-4.56A11.46,11.46,0,0,1,58.64.08,6.28,6.28,0,0,1,63.7,1.49a9.28,9.28,0,0,1,1.36,1.37,5.74,5.74,0,0,1,4,2.36,8.34,8.34,0,0,1,1.32,2.67,9,9,0,0,1,.35,3,7.25,7.25,0,0,1-2.1,4.9,1.46,1.46,0,0,1,.66.16,1.64,1.64,0,0,1,.57,2c-.19.61-.44,1.32-.67,1.91-.29.8-.7.95-1.5.87,0,2-1.47,2.76-2.69,3.9,3,5.58,15.67,1.9,15.67,13h-41c0-11.1,12.39-7.27,15.73-13.07Zm37.84,85.68a48.79,48.79,0,0,1-65.53,0H40.69a41.28,41.28,0,0,0,39.68,0ZM15,56.55A48.93,48.93,0,0,1,31.36,35q-.12,1.24-.12,2.67a8.46,8.46,0,0,0,2,5.51c-.65.57-1.29,1.17-1.9,1.78a41.27,41.27,0,0,0-8.2,11.68A16.77,16.77,0,0,0,18.65,56a13.54,13.54,0,0,0-3.67.53Z"/></svg>