<svg xmlns="http://www.w3.org/2000/svg" shape-rendering="geometricPrecision" text-rendering="geometricPrecision" image-rendering="optimizeQuality" fill-rule="evenodd" clip-rule="evenodd" viewBox="0 0 512 454.57"><path fill-rule="nonzero" d="M78.41 427.01c1.71-48.48 15.72-93 38.16-128.62 4.31 8.31 9.36 16.18 15.04 23.53-16.43 29.83-26.62 65.79-28.17 104.78h303.93c-1.54-38.98-11.74-74.94-28.16-104.77 5.68-7.36 10.72-15.23 15.04-23.54 22.43 35.62 36.44 80.15 38.15 128.62h61.81c9.17 0 16.61 6.17 16.61 13.78 0 7.61-7.44 13.78-16.61 13.78H16.61C7.44 454.57 0 448.4 0 440.79c0-7.61 7.44-13.78 16.61-13.78h61.8zm177-332.89c36.53 0 69.6 14.81 93.54 38.75 23.94 23.94 38.75 57.02 38.75 93.55 0 36.53-14.81 69.61-38.75 93.54-23.94 23.94-57.01 38.75-93.54 38.75-36.53 0-69.61-14.81-93.55-38.75-23.94-23.93-38.75-57.01-38.75-93.54 0-36.53 14.81-69.61 38.75-93.55 23.94-23.94 57.02-38.75 93.55-38.75zm-2.4 62.75h.16c2.13-.03 4.25.92 5.6 2.77l11.25 15.26c2.22 3.02 1.56 7.27-1.46 9.49a6.81 6.81 0 0 1-6.53.83l-.21 26.03c3.1 1.56 5.69 4.01 7.43 7l25.25.01c-.93-2.19-.68-4.8.87-6.82 2.3-2.97 6.56-3.5 9.52-1.22l15.01 11.58a6.767 6.767 0 0 1 2.64 5.32v.19a6.752 6.752 0 0 1-2.64 5.32l-15.01 11.59c-2.96 2.29-7.22 1.74-9.52-1.22a6.795 6.795 0 0 1-.87-6.81h-25.26c-3.09 5.31-8.86 8.9-15.46 8.9-9.87 0-17.87-8.01-17.87-17.87 0-6.18 3.14-11.63 7.91-14.84l.22-27.78c-2.25 1-4.97.72-7.01-.94a6.78 6.78 0 0 1-.99-9.54l11.91-14.74a6.834 6.834 0 0 1 5.06-2.51zm9.82 182.85c0 .23-.01.45-.03.67 15.44-.99 30.06-5.04 43.23-11.57-.14-.19-.27-.39-.38-.6l-5.54-9.58c-2.03-3.54-.81-8.07 2.73-10.1 3.54-2.03 8.07-.81 10.1 2.74l5.53 9.58c.11.19.21.39.3.59 6.27-4.19 12.09-8.97 17.39-14.28 5.31-5.3 10.09-11.13 14.28-17.39-.2-.09-.4-.19-.59-.3l-9.59-5.53c-3.54-2.03-4.76-6.56-2.73-10.1s6.56-4.76 10.1-2.73l9.58 5.53c.21.12.42.25.6.38 6.53-13.17 10.58-27.77 11.57-43.22-.22.02-.44.03-.67.03h-11.06c-4.1 0-7.42-3.33-7.42-7.42 0-4.1 3.32-7.43 7.42-7.43h11.06c.23 0 .45.01.67.03-.99-15.45-5.05-30.05-11.57-43.22-.19.13-.39.26-.6.38l-9.58 5.53c-3.54 2.03-8.07.81-10.1-2.73a7.407 7.407 0 0 1 2.73-10.1l9.59-5.53c.19-.11.39-.21.59-.3a115.21 115.21 0 0 0-14.28-17.39c-5.3-5.31-11.12-10.09-17.39-14.27l-.3.59-5.53 9.58c-2.03 3.54-6.56 4.76-10.1 2.73s-4.76-6.56-2.73-10.1l5.53-9.58c.11-.21.24-.41.38-.6a113.64 113.64 0 0 0-43.22-11.57c.01.22.03.45.03.67v11.07c0 4.09-3.34 7.42-7.43 7.42-4.1 0-7.43-3.33-7.43-7.42v-11.07c0-.22.01-.45.03-.67a113.59 113.59 0 0 0-43.21 11.57c.14.19.27.39.38.6l5.53 9.58c2.03 3.54.82 8.07-2.73 10.1a7.407 7.407 0 0 1-10.1-2.73l-5.53-9.58c-.11-.2-.21-.4-.3-.59-6.26 4.18-12.08 8.96-17.39 14.27a114.51 114.51 0 0 0-14.26 17.38c.2.1.41.19.61.31l9.58 5.54a7.417 7.417 0 0 1 2.7 10.13 7.406 7.406 0 0 1-10.13 2.69l-9.58-5.53-.57-.37c-6.52 13.17-10.57 27.77-11.57 43.21l.67-.03h11.06c4.1 0 7.43 3.33 7.43 7.43s-3.33 7.42-7.43 7.42H142.1l-.67-.02c1 15.44 5.05 30.04 11.57 43.21.19-.13.39-.26.6-.38l9.58-5.53c3.55-2.03 8.07-.81 10.1 2.73 2.03 3.54.81 8.07-2.73 10.1l-9.58 5.53c-.2.11-.4.21-.59.3a114.987 114.987 0 0 0 31.64 31.66c.1-.21.2-.41.31-.61l5.54-9.59c2.06-3.54 6.6-4.75 10.13-2.7a7.4 7.4 0 0 1 2.7 10.13l-5.54 9.59-.36.56a113.59 113.59 0 0 0 43.21 11.57c-.02-.22-.03-.44-.03-.67v-11.06c0-4.09 3.33-7.42 7.43-7.42 4.09 0 7.42 3.33 7.42 7.42v11.06zM116.57 154.45C94.4 119.26 80.46 75.36 78.48 27.56H17.79c-9.17 0-16.61-6.17-16.61-13.78C1.18 6.17 8.62 0 17.79 0h477.6C504.56 0 512 6.17 512 13.78c0 7.61-7.44 13.78-16.61 13.78h-63.06c-1.98 47.8-15.92 91.7-38.08 126.89-4.32-8.31-9.36-16.18-15.04-23.54 16.22-29.46 26.37-64.91 28.1-103.35H103.5c1.73 38.44 11.88 73.89 28.1 103.36a156.29 156.29 0 0 0-15.03 23.53z"/></svg>